<svg xmlns="http://www.w3.org/2000/svg" height="1024" version="1.1" width="1024" style=""><rect id="backgroundrect" width="100%" height="100%" x="0" y="0" fill="none" stroke="none"/><g class="currentLayer" style=""><title>Layer 1</title><path d="M128 128a42.666667 42.666667 0 0 0-42.666667 42.666667v234.666666c0 72.106667 43.946667 133.546667 106.666667 158.72v267.946667A64 64 0 0 0 256 896a64 64 0 0 0 64-64v-267.946667c62.72-25.173333 106.666667-86.613333 106.666667-158.72V170.666667a42.666667 42.666667 0 0 0-42.666667-42.666667 42.666667 42.666667 0 0 0-42.666667 42.666667v170.666666a21.333333 21.333333 0 0 1-21.333333 21.333334A21.333333 21.333333 0 0 1 298.666667 341.333333V170.666667a42.666667 42.666667 0 0 0-42.666667-42.666667 42.666667 42.666667 0 0 0-42.666667 42.666667v170.666666a21.333333 21.333333 0 0 1-21.333333 21.333334A21.333333 21.333333 0 0 1 170.666667 341.333333V170.666667a42.666667 42.666667 0 0 0-42.666667-42.666667m720.213333 0c-5.546667 0-11.093333 3.84-16.213333 6.826667L682.666667 224V384h-170.666667v85.333333h42.666667l42.666666 426.666667h256l42.666667-426.666667h42.666667V384h-170.666667V270.506667l106.666667-64c21.333333-11.946667 26.88-35.84 14.506666-57.173334-8.96-15.36-24.746667-23.466667-40.96-21.333333z" fill="#ffffff" id="svg_1" class="selected" fill-opacity="1"/></g></svg>