<svg height="1024" width="1024" xmlns="http://www.w3.org/2000/svg"><path d="m128 128a42.66667 42.66667 0 0 0 -42.66667 42.66667v234.66666c0 72.10667 43.94667 133.54667 106.66667 158.72v267.94667a64 64 0 0 0 64 64 64 64 0 0 0 64-64v-267.94667c62.72-25.17333 106.66667-86.61333 106.66667-158.72v-234.66666a42.66667 42.66667 0 0 0 -42.66667-42.66667 42.66667 42.66667 0 0 0 -42.66667 42.66667v170.66666a21.33333 21.33333 0 0 1 -21.33333 21.33334 21.33333 21.33333 0 0 1 -21.33333-21.33334v-170.66666a42.66667 42.66667 0 0 0 -42.66667-42.66667 42.66667 42.66667 0 0 0 -42.66667 42.66667v170.66666a21.33333 21.33333 0 0 1 -21.33333 21.33334 21.33333 21.33333 0 0 1 -21.33333-21.33334v-170.66666a42.66667 42.66667 0 0 0 -42.66667-42.66667m720.21333 0c-5.54666 0-11.09333 3.84-16.21333 6.82667l-149.33333 89.17333v160h-170.66667v85.33333h42.66667l42.66666 426.66667h256l42.66667-426.66667h42.66667v-85.33333h-170.66667v-113.49333l106.66667-64c21.33333-11.94667 26.88-35.84 14.50666-57.17334-8.96-15.36-24.74666-23.46666-40.96-21.33333z" fill="#038f3e"/><g fill="none"><rect height="100%" width="100%"/><path d="m-1-1h582v402h-582z"/></g></svg>