<svg width="1024" height="1024" xmlns="http://www.w3.org/2000/svg">

 <g class="currentLayer">
  <title>Layer 1</title>
  <path class="selected" id="svg_1" fill="#038f3e" d="m128,128a42.66667,42.66667 0 0 0 -42.66667,42.66667l0,234.66666c0,72.10667 43.94667,133.54667 106.66667,158.72l0,267.94667a64,64 0 0 0 64,64a64,64 0 0 0 64,-64l0,-267.94667c62.72,-25.17333 106.66667,-86.61333 106.66667,-158.72l0,-234.66666a42.66667,42.66667 0 0 0 -42.66667,-42.66667a42.66667,42.66667 0 0 0 -42.66667,42.66667l0,170.66666a21.33333,21.33333 0 0 1 -21.33333,21.33334a21.33333,21.33333 0 0 1 -21.33333,-21.33334l0,-170.66666a42.66667,42.66667 0 0 0 -42.66667,-42.66667a42.66667,42.66667 0 0 0 -42.66667,42.66667l0,170.66666a21.33333,21.33333 0 0 1 -21.33333,21.33334a21.33333,21.33333 0 0 1 -21.33333,-21.33334l0,-170.66666a42.66667,42.66667 0 0 0 -42.66667,-42.66667m720.21333,0c-5.54666,0 -11.09333,3.84 -16.21333,6.82667l-149.33333,89.17333l0,160l-170.66667,0l0,85.33333l42.66667,0l42.66666,426.66667l256,0l42.66667,-426.66667l42.66667,0l0,-85.33333l-170.66667,0l0,-113.49333l106.66667,-64c21.33333,-11.94667 26.88,-35.84 14.50666,-57.17334c-8.96,-15.36 -24.74666,-23.46666 -40.96,-21.33333z"/>
 </g>
 <g>
  <title>Layer 2</title>
  <rect fill="none" y="0" x="0" height="100%" width="100%" id="backgroundrect"/>
 </g>
 <g>
  <title>background</title>
  <rect fill="none" id="canvas_background" height="402" width="582" y="-1" x="-1"/>
 </g>
</svg>