<svg height="700pt" preserveAspectRatio="xMidYMid meet" viewBox="0 0 700 700" width="700pt" xmlns="http://www.w3.org/2000/svg"><g transform="matrix(.1 0 0 -.1 0 700)"><path d="m823 6119c-94-17-168-76-212-169l-26-55 1-885c0-487 4-907 7-934 49-335 228-628 502-816 26-18 86-52 133-76l85-42v-933c0-1007-1-994 53-1101 30-60 118-149 172-177 114-57 231-68 347-33 147 45 273 194 295 350 4 32 8 452 9 933 0 481 0 894 1 919v45l69 32c217 101 418 299 531 524 46 91 75 172 103 294 20 87 20 118 22 970 1 484-2 899-7 923-11 61-33 104-76 147-146 147-383 104-471-85l-26-55-1-630c-1-494-4-636-14-655-37-72-80-91-181-82-27 3-78 59-88 99-6 23-10 280-10 643 0 374-4 618-10 638-64 215-317 284-484 133-31-28-70-97-81-145-4-16-7-304-7-640 0-595-1-612-21-654-26-55-77-83-139-77-54 6-88 30-113 80-18 37-19 69-20 664l-1 626-26 55c-59 126-183 192-316 169z"/><path d="m5776 6122c-25-5-43-16-298-169-117-70-217-130-223-133-32-16-563-335-575-346-13-11-15-83-14-546 0-293-3-538-7-543-5-7-207-10-583-10h-576v-292-292l147-3c138-3 146-4 148-23 1-11 6-60 10-110 4-49 9-97 10-105 2-8 6-49 9-90 4-41 9-91 11-110 3-19 7-60 10-90s7-76 10-102c3-27 7-69 10-95 2-27 7-77 11-113s8-76 9-90 5-56 9-95c3-38 8-86 11-105 2-19 7-66 11-105 13-142 25-264 29-300 2-16 6-59 10-95 3-36 7-81 10-100 2-19 7-69 11-110 3-41 7-82 9-90s6-53 10-100 8-92 10-100 6-51 10-95 8-93 10-110c2-16 7-61 10-100 4-38 8-81 10-95s6-56 10-95c3-38 8-88 10-110s7-69 10-105c4-36 9-67 12-70 6-6 1743-7 1744 0 3 12 8 49 14 115 3 39 8 84 10 100 2 17 7 59 10 95s8 83 10 105c3 22 10 89 15 150 5 60 12 126 15 145 2 19 7 61 10 93 3 31 7 81 10 110 3 28 7 75 10 102 10 105 24 237 30 285 2 19 7 67 10 105 4 39 8 86 10 105s7 64 10 100 8 81 10 100 7 68 10 107c3 40 8 80 9 90 2 10 7 52 11 93 3 41 10 113 15 160s12 117 15 155c3 39 8 86 10 105 8 58 14 121 20 195 3 39 8 81 10 95 6 37 18 162 17 183-1 15 13 17 147 17h147l-1 288c-1 158-3 289-4 292 0 3-261 5-578 5h-578v389 390l365 218c201 121 385 235 409 255 27 22 53 57 69 91 61 135-14 320-156 384-42 19-128 29-166 20z"/></g></svg>